<svg width="23" height="12" viewBox="0 0 23 12" fill="none" xmlns="http://www.w3.org/2000/svg">
<path d="M5.00878 0.818182V11H3.46758V2.35938H3.40792L0.971843 3.95028V2.47869L3.51233 0.818182H5.00878ZM10.6434 11.1392C9.93078 11.1392 9.30105 11.0166 8.75417 10.7713C8.21061 10.526 7.78471 10.188 7.47647 9.7571C7.16824 9.32623 7.01577 8.8357 7.01909 8.28551C7.01577 7.85464 7.1036 7.45857 7.28258 7.0973C7.46487 6.73272 7.7118 6.42945 8.02335 6.1875C8.3349 5.94223 8.68291 5.78646 9.06738 5.72017V5.66051C8.56028 5.53788 8.15427 5.2661 7.84934 4.84517C7.54442 4.42424 7.39361 3.94034 7.39693 3.39347C7.39361 2.87311 7.53116 2.40909 7.80957 2.00142C8.09129 1.59044 8.47742 1.26728 8.96795 1.03196C9.45848 0.796638 10.017 0.678977 10.6434 0.678977C11.2632 0.678977 11.8167 0.798295 12.3039 1.03693C12.7944 1.27225 13.1805 1.59541 13.4623 2.00639C13.744 2.41406 13.8865 2.87642 13.8898 3.39347C13.8865 3.94034 13.7307 4.42424 13.4225 4.84517C13.1143 5.2661 12.7132 5.53788 12.2194 5.66051V5.72017C12.6005 5.78646 12.9436 5.94223 13.2485 6.1875C13.5567 6.42945 13.802 6.73272 13.9843 7.0973C14.1699 7.45857 14.2644 7.85464 14.2677 8.28551C14.2644 8.8357 14.1086 9.32623 13.8003 9.7571C13.4921 10.188 13.0645 10.526 12.5177 10.7713C11.9741 11.0166 11.3493 11.1392 10.6434 11.1392ZM10.6434 9.88139C11.0643 9.88139 11.4289 9.81179 11.7371 9.67259C12.0454 9.53007 12.284 9.33286 12.453 9.08097C12.6221 8.82576 12.7082 8.52746 12.7116 8.18608C12.7082 7.83144 12.6154 7.51823 12.4332 7.24645C12.2542 6.97467 12.0106 6.76089 11.7023 6.60511C11.3941 6.44934 11.0411 6.37145 10.6434 6.37145C10.2423 6.37145 9.88604 6.44934 9.57449 6.60511C9.26293 6.76089 9.01767 6.97467 8.83869 7.24645C8.65971 7.51823 8.57188 7.83144 8.5752 8.18608C8.57188 8.52746 8.65308 8.82576 8.8188 9.08097C8.98784 9.33286 9.22813 9.53007 9.53968 9.67259C9.85124 9.81179 10.2191 9.88139 10.6434 9.88139ZM10.6434 5.14347C10.9814 5.14347 11.2814 5.07552 11.5432 4.93963C11.8051 4.80374 12.0106 4.61482 12.1597 4.37287C12.3122 4.13092 12.3901 3.84754 12.3934 3.52273C12.3901 3.20455 12.3138 2.92614 12.1647 2.6875C12.0189 2.44886 11.815 2.26491 11.5532 2.13565C11.2913 2.00308 10.9881 1.93679 10.6434 1.93679C10.2921 1.93679 9.98381 2.00308 9.71866 2.13565C9.45682 2.26491 9.25299 2.44886 9.10716 2.6875C8.96132 2.92614 8.89006 3.20455 8.89338 3.52273C8.89006 3.84754 8.96298 4.13092 9.11213 4.37287C9.26128 4.61482 9.46677 4.80374 9.72861 4.93963C9.99376 5.07552 10.2987 5.14347 10.6434 5.14347ZM18.5015 10.3537V3.6321H19.8389V10.3537H18.5015ZM15.8119 7.65909V6.32173H22.5335V7.65909H15.8119Z" fill="#0F0F0F"/>
</svg>
