<svg width="72" height="24" viewBox="0 0 72 24" fill="none" xmlns="http://www.w3.org/2000/svg">
<path d="M53.1063 6.91406V16.4072C53.1063 20.594 49.7009 23.9994 45.5141 23.9994C41.3273 23.9994 37.9219 20.594 37.9219 16.4072V6.91406H41.4906V16.4072C41.4906 18.6347 43.2982 20.4307 45.5141 20.4307C47.7299 20.4307 49.5376 18.6347 49.5376 16.4072V6.91406H53.1063Z" fill="#0F0F0F"/>
<path d="M71.2625 14.0883V23.5814H67.6938V14.0883C67.6938 11.8608 65.8862 10.0531 63.6703 10.0531C61.4545 10.0531 59.6468 11.8608 59.6468 14.0883V23.5814H56.0781V14.0883C56.0781 9.9015 59.4835 6.49609 63.6703 6.49609C67.8571 6.49609 71.2625 9.9015 71.2625 14.0883Z" fill="#0F0F0F"/>
<path d="M23.7255 19.0919L25.6032 21.9725C24.0637 22.8938 21.7196 23.9551 19.1306 23.9551C17.2296 23.9551 15.4802 23.372 13.9292 22.2057C11.4334 20.3398 10.2089 17.5408 10.5587 14.5319C10.9203 11.4181 12.9029 8.56078 15.5036 7.42953C16.7748 6.86974 18.1159 6.58984 19.4105 6.58984C20.7283 6.58984 21.9762 6.86974 23.0141 7.45286C24.5302 8.26922 25.4982 9.62206 25.7548 11.2664C26.1047 13.459 25.3699 14.8001 24.6818 15.5349C23.259 17.051 20.775 17.5991 16.8681 17.2609L17.183 13.8322C20.8216 14.147 21.8829 13.4823 22.1628 13.1791C22.4077 12.9225 22.4777 12.456 22.3727 11.8029C22.2677 11.2081 21.9412 10.7766 21.3697 10.4617C20.2385 9.84364 18.4308 9.89029 16.8797 10.5784C15.4103 11.2198 14.1857 13.0508 13.9758 14.9284C13.8242 16.1996 14.0574 18.0073 15.9934 19.4534C18.6874 21.4827 21.9529 20.1298 23.7255 19.0919Z" fill="#0F0F0F"/>
<path d="M9.25991 6.91406V10.4711H6.20437C4.74658 10.4711 3.56868 11.6956 3.56868 13.2001V23.5796H0V13.2001C0 9.73635 2.77564 6.91406 6.20437 6.91406H9.25991Z" fill="#0F0F0F"/>
<path d="M32.0999 6.20437V6.9391H34.9572V10.4961H32.0999V23.5813H28.5312V6.20437C28.5312 2.7873 31.3186 0 34.7356 0H37.1731V3.56868H34.7356C33.2778 3.56868 32.0999 4.74658 32.0999 6.20437Z" fill="#0F0F0F"/>
</svg>
