<svg width="55" height="18" viewBox="0 0 55 18" fill="none" xmlns="http://www.w3.org/2000/svg">
<g opacity="0.56">
<path d="M3.5462 6.6892C5.08124 6.6892 6.44141 5.77664 6.78146 4.52739L5.93621 4.37678C5.65446 5.2982 4.65376 5.98041 3.5462 5.98041C2.00144 5.98041 0.884156 4.87293 0.884156 3.34017C0.884156 1.81627 1.99172 0.70879 3.5462 0.70879C4.67319 0.70879 5.67389 1.40872 5.92649 2.37445L6.79117 2.26813C6.45113 0.956866 5.09096 0 3.5462 0C1.48652 0 4.70419e-05 1.39986 4.70419e-05 3.34017C-0.00966842 5.28048 1.48652 6.6892 3.5462 6.6892Z" fill="#0F0F0F"/>
<path d="M8.24075 6.46771L8.82368 5.06785H12.3115L12.8945 6.46771H13.7397L11.1845 0.221497H9.97982L7.3955 6.46771H8.24075ZM10.5336 0.930287H10.621L12.0589 4.40336H9.086L10.5336 0.930287Z" fill="#0F0F0F"/>
<path d="M17.4699 6.6892C19.1506 6.6892 20.1319 5.95383 20.1319 4.78433C20.1319 3.36675 18.7231 3.11868 17.4796 2.93262C16.4692 2.79086 15.5559 2.64024 15.5559 1.81627C15.5559 1.14292 16.1583 0.70879 17.2658 0.70879C18.4414 0.70879 19.1215 1.23152 19.1215 2.11751H19.9764C19.9667 0.797388 18.9466 0 17.2658 0C15.6142 0 14.6718 0.73537 14.6718 1.86057C14.6718 3.21613 16.032 3.50851 17.2658 3.68571C18.2957 3.83632 19.2478 3.97808 19.2478 4.83749C19.2478 5.53742 18.5968 5.98041 17.4796 5.98041C16.1971 5.98041 15.449 5.40452 15.4393 4.4388H14.5649C14.5649 5.8298 15.6725 6.6892 17.4699 6.6892Z" fill="#0F0F0F"/>
<path d="M22.4881 6.46771V0.221497H21.604V6.46771H22.4881Z" fill="#0F0F0F"/>
<path d="M25.2206 6.46771V1.28468H25.3178L28.5627 6.46771H29.8257V0.221497H28.9416V5.40452H28.8542L25.6092 0.221497H24.3365V6.46771H25.2206Z" fill="#0F0F0F"/>
<path d="M34.9447 6.6892C37.1112 6.6892 38.6463 5.30706 38.6463 3.34017C38.6463 1.391 37.1112 0 34.9447 0C32.7781 0 31.2431 1.391 31.2431 3.34017C31.2431 5.30706 32.7781 6.6892 34.9447 6.6892ZM34.9447 5.98041C33.3027 5.98041 32.1272 4.87293 32.1272 3.34017C32.1272 1.80741 33.3027 0.70879 34.9447 0.70879C36.5866 0.70879 37.7524 1.80741 37.7524 3.34017C37.7524 4.87293 36.5866 5.98041 34.9447 5.98041Z" fill="#0F0F0F"/>
<path d="M3.5462 18C5.08124 18 6.44141 17.0874 6.78146 15.8382L5.93621 15.6876C5.65446 16.609 4.65376 17.2912 3.5462 17.2912C2.00144 17.2912 0.884156 16.1837 0.884156 14.651C0.884156 13.1271 1.99172 12.0196 3.5462 12.0196C4.67319 12.0196 5.67389 12.7195 5.92649 13.6852L6.79117 13.5789C6.45113 12.2677 5.09096 11.3108 3.5462 11.3108C1.48652 11.3108 4.70419e-05 12.7107 4.70419e-05 14.651C-0.00966842 16.5913 1.48652 18 3.5462 18Z" fill="#0F0F0F"/>
<path d="M8.24075 17.7785L8.82368 16.3786H12.3115L12.8945 17.7785H13.7397L11.1845 11.5323H9.97982L7.3955 17.7785H8.24075ZM10.5336 12.2411H10.621L12.0589 15.7142H9.086L10.5336 12.2411Z" fill="#0F0F0F"/>
<path d="M17.4699 18C19.1506 18 20.1319 17.2646 20.1319 16.0951C20.1319 14.6775 18.7231 14.4295 17.4796 14.2434C16.4692 14.1017 15.5559 13.951 15.5559 13.1271C15.5559 12.4537 16.1583 12.0196 17.2658 12.0196C18.4414 12.0196 19.1215 12.5423 19.1215 13.4283H19.9764C19.9667 12.1082 18.9466 11.3108 17.2658 11.3108C15.6142 11.3108 14.6718 12.0462 14.6718 13.1714C14.6718 14.5269 16.032 14.8193 17.2658 14.9965C18.2957 15.1471 19.2478 15.2889 19.2478 16.1483C19.2478 16.8482 18.5968 17.2912 17.4796 17.2912C16.1971 17.2912 15.449 16.7153 15.4393 15.7496H14.5649C14.5649 17.1406 15.6725 18 17.4699 18Z" fill="#0F0F0F"/>
<path d="M22.4881 17.7785V14.8725H26.18V17.7785H27.0641V11.5323H26.18V14.1637H22.4881V11.5323H21.5943V17.7785H22.4881Z" fill="#0F0F0F"/>
<path d="M31.6595 17.7785C33.0293 17.7785 34.0203 17.0343 34.0203 16.0242C34.0203 15.3509 33.5248 14.7661 32.8253 14.5889V14.5004C33.4082 14.332 33.826 13.8004 33.826 13.2068C33.826 12.2322 32.9225 11.5323 31.6595 11.5323H28.6865V17.7785H31.6595ZM29.5706 12.2411H31.5526C32.3687 12.2411 32.9516 12.6575 32.9516 13.2334C32.9516 13.8093 32.3687 14.2168 31.5526 14.2168H29.5706V12.2411ZM29.5706 14.9256H31.5332C32.4756 14.9256 33.1459 15.3686 33.1459 15.9799C33.1459 16.609 32.4756 17.0697 31.5332 17.0697H29.5706V14.9256Z" fill="#0F0F0F"/>
<path d="M35.6556 17.7785L36.2385 16.3786H39.7263L40.3093 17.7785H41.1545L38.5994 11.5323H37.3946L34.8103 17.7785H35.6556ZM37.9484 12.2411H38.0359L39.4737 15.7142H36.5008L37.9484 12.2411Z" fill="#0F0F0F"/>
<path d="M45.3065 18C46.8416 18 48.2017 17.0874 48.5418 15.8382L47.6965 15.6876C47.4148 16.609 46.4141 17.2912 45.3065 17.2912C43.7618 17.2912 42.6445 16.1837 42.6445 14.651C42.6445 13.1271 43.752 12.0196 45.3065 12.0196C46.4335 12.0196 47.4342 12.7195 47.6868 13.6852L48.5515 13.5789C48.2115 12.2677 46.8513 11.3108 45.3065 11.3108C43.2468 11.3108 41.7604 12.7107 41.7604 14.651C41.7507 16.5913 43.2468 18 45.3065 18Z" fill="#0F0F0F"/>
<path d="M50.8612 17.7785V14.8459H50.9584L53.8827 17.7785H55L51.7162 14.5535L54.9028 11.5323H53.7953L50.9584 14.2611H50.8612V11.5323H49.9771V17.7785H50.8612Z" fill="#0F0F0F"/>
</g>
</svg>
