<svg width="12" height="12" viewBox="0 0 12 12" fill="none" xmlns="http://www.w3.org/2000/svg">
<path opacity="0.6" d="M5.98544 12C9.50971 12 12 9.51111 12 5.98519C12 2.47407 9.50971 0 5.98544 0C2.49029 0 0 2.53333 0 5.98519C0 9.51111 2.49029 12 5.98544 12ZM6 11.1704C3.01456 11.1704 0.902913 9.02222 0.902913 5.98519C0.902913 3.03704 3.01456 0.844445 6 0.844445C8.98544 0.844445 11.0971 3.03704 11.0971 5.98519C11.0971 9.02222 8.98544 11.1704 6 11.1704ZM6.10194 10C7.82039 10 9.29126 8.82963 9.61165 7.2L8.86893 7.00741C8.57767 8.23704 7.41262 9.14074 6.11651 9.14074C4.39806 9.14074 3.17476 7.82222 3.17476 6C3.17476 4.17778 4.39806 2.88889 6.07282 2.88889C7.32524 2.88889 8.4466 3.7037 8.76699 4.85926L9.59709 4.68148C9.26214 3.14074 7.79126 2 6.11651 2C3.81553 2 2.19903 3.65926 2.19903 6C2.19903 8.34074 3.81553 10 6.10194 10Z" fill="#0F0F0F"/>
</svg>
